<?xml version="1.0" encoding="utf-8"?>
<?xml-stylesheet type="text/xsl" href="rss1.xsl"?>
<rss version="2.0" xmlns:atom="http://www.w3.org/2005/Atom" xmlns:content="http://purl.org/rss/1.0/modules/content/" xmlns:dc="http://purl.org/dc/elements/1.1/" xmlns:media="http://search.yahoo.com/mrss/">
<channel>
 <title>Getty</title>
 <link>http://www.gettyimg.com/</link>
 <atom:link href="http://www.gettyimg.com/" rel="self" type="application/rss+xml" />

 
                <item>
                <title><![CDATA[【HD Live Performances】BDRiP - Fujii.Kaze.Love.All.Serve.All.Stadium.Live.1080p.NF.WEB-DL.AAC.2.0.H.264-LSD]]></title>
                <link><![CDATA[https://sharemania.us/threads/fujii-kaze-love-all-serve-all-stadium-live-1080p-nf-web-dl-aac-2-0-h-264-lsd.219894/]]></link>
                <description><![CDATA[<article>
<blockquote class="messageText SelectQuoteContainer ugc baseHtml">
<div style="text-align: center"><img src="https://i.postimg.cc/CKHb8qb1/Fujii-Kaze-Love-All-Serve-All-Stadium-Live-1080p-NF-WEB-DL-AAC-2-0-H-264-LSD-mkv.jpg" class="bbCodeImage LbImage" alt="[​IMG]" data-url="https://i.postimg.cc/CKHb8qb1/Fujii-Kaze-Love-All-Serve-All-Stadium-Live-1080p-NF-WEB-DL-AAC-2-0-H-264-LSD-mkv.jpg" style=""><br>
orginally posted by zoremeth on jpopsuki!<br>
​</div>
<div class="ToggleTriggerAnchor bbCodeSpoilerContainer">
<button type="button" class="button bbCodeSpoilerButton ToggleTrigger Tooltip JsOnly" data-target="> .SpoilerTarget"><span>Spoiler: <span class="SpoilerTitle">MediaInfo</span></span></button>
<div class="SpoilerTarget bbCodeSpoilerText"><div style="text-align: center">Complete name : Downloads\[2023.03.10] Fujii Kaze Love All Serve All Stadium Live\Fujii.Kaze.Love.All.Serve.All.Stadium.Live.1080p.NF.WEB-DL.AAC.2.0.H.264-LSD.mkv​</div><div style="text-align: left">Format : Matroska<br>
Format version : Version 4<br>
File size : 3.89 GiB<br>
Duration : 1 h 38 min<br>
Overall bit rate mode : Variable<br>
Overall bit rate : 5 677 kb/s<br>
Movie name : Fujii Kaze "Love All Serve All Stadium Live"<br>
Encoded date : UTC 2023-03-10 12:15:12<br>
Writing application : mkvmerge v74.0.0 ('You Oughta Know') 64-bit<br>
Writing library : libebml v1.4.4 + libmatroska v1.7.1​</div><br>
<div style="text-align: center">Video​</div><div style="text-align: left">ID : 1<br>
Format : AVC<br>
Format/Info : Advanced Video Codec<br>
Format profile : High@L4<br>
Format settings : CABAC / 4 Ref Frames<br>
Format settings, CABAC : Yes<br>
Format settings, Reference fra : 4 frames<br>
Codec ID : V_MPEG4/ISO/AVC<br>
Duration : 1 h 38 min<br>
Bit rate mode : Variable<br>
Bit rate : 5 547 kb/s<br>
Maximum bit rate : 20.0 Mb/s<br>
Width : 1 920 pixels<br>
Height : 1 080 pixels<br>
Display aspect ratio : 16:9<br>
Frame rate mode : Constant<br>
Frame rate  : 23.976 (24000/1001) FPS<br>
Color space : YUV<br>
Chroma subsampling : 4:2:0<br>
Bit depth : 8 bits<br>
Scan type : Progressive<br>
Bits/(Pixel*Frame) : 0.112<br>
Stream size : 3.80 GiB (98%)<br>
Writing library : x264 core 148 r2727 7d026e8<br>
Encoding settings : cabac=1 / ref=4 / deblock=1:0:0 / analyse=0x3:0x111 / me=umh / subme=10 / psy=1 / psy_rd=1.00:0.00 / mixed_ref=1 / me_range=120 / chroma_me=1 / trellis=2 / 8x8dct=1 / cqm=0 / deadzone=21,11 / fast_pskip=1 / chroma_qp_offset=-2 / threads=6 / lookahead_threads=1 / sliced_threads=0 / nr=0 / decimate=1 / interlaced=0 / bluray_compat=0 / stitchable=1 / constrained_intra=0 / bframes=16 / b_pyramid=2 / b_adapt=2 / b_bias=0 / direct=3 / weightb=1 / open_gop=0 / weightp=2 / keyint=240 / keyint_min=121 / scenecut=0 / intra_refresh=0 / rc_lookahead=240 / rc=crf / mbtree=1 / crf=16.0 / qcomp=0.50 / qpmin=6 / qpmax=51 / qpstep=4 / vbv_maxrate=20000 / vbv_bufsize=25000 / crf_max=0.0 / nal_hrd=vbr / filler=0 / ip_ratio=1.40 / aq=1:0.80<br>
Language : Japanese<br>
Default : Yes<br>
Forced : No​</div><br>
<div style="text-align: center">Audio​</div><div style="text-align: left">ID : 2<br>
Format : AAC LC SBR<br>
Format/Info : Advanced Audio Codec Low Complexity with Spectral Band Replication<br>
Commercial name : HE-AAC<br>
Format settings : Explicit<br>
Codec ID : A_AAC-2<br>
Duration : 1 h 38 min<br>
Bit rate : 128 kb/s<br>
Channel(s) : 2 channels<br>
Channel layout : L R<br>
Sampling rate : 48.0 kHz<br>
Frame rate : 23.438 FPS (2048 SPF)<br>
Compression mode : Lossy<br>
Stream size : 89.8 MiB (2%)<br>
Language : Japanese<br>
Default : Yes<br>
Forced : No​</div><br>
<div style="text-align: center">Text #1​</div><div style="text-align: left">ID : 3<br>
Format : UTF-8<br>
Codec ID : S_TEXT/UTF8<br>
Codec ID/Info : UTF-8 Plain Text<br>
Duration : 1 h 31 min<br>
Bit rate : 45 b/s<br>
Frame rate : 0.149 FPS<br>
Count of elements : 812<br>
Stream size : 30.4 KiB (0%)<br>
Language : English<br>
Default : Yes<br>
Forced : No​</div><br>
<div style="text-align: center">Text #2​</div><div style="text-align: left">ID : 4<br>
Format : UTF-8<br>
Codec ID : S_TEXT/UTF8<br>
Codec ID/Info : UTF-8 Plain Text<br>
Duration : 1 h 35 min<br>
Bit rate : 2 b/s<br>
Frame rate : 0.008 FPS<br>
Count of elements : 47<br>
Stream size : 1.52 KiB (0%)<br>
Language : Arabic<br>
Default : No<br>
Forced : No​</div><br>
<div style="text-align: center">Text #3​</div><div style="text-align: left">ID : 5<br>
Format : UTF-8<br>
Codec ID : S_TEXT/UTF8<br>
Codec ID/Info : UTF-8 Plain Text<br>
Duration : 1 h 35 min<br>
Bit rate : 1 b/s<br>
Frame rate : 0.008 FPS<br>
Count of elements : 47<br>
Stream size : 1.01 KiB (0%)<br>
Language : Dutch<br>
Default : No<br>
Forced : No​</div><br>
<div style="text-align: center">Text #4​</div><div style="text-align: left">ID : 6<br>
Format : UTF-8<br>
Codec ID : S_TEXT/UTF8<br>
Codec ID/Info : UTF-8 Plain Text<br>
Duration : 1 h 35 min<br>
Bit rate : 1 b/s<br>
Frame rate : 0.008 FPS<br>
Count of elements : 47<br>
Stream size : 1.01 KiB (0%)<br>
Language : French<br>
Default : No<br>
Forced : No​</div><br>
<div style="text-align: center">Text #5​</div><div style="text-align: left">ID : 7<br>
Format : UTF-8<br>
Codec ID : S_TEXT/UTF8<br>
Codec ID/Info : UTF-8 Plain Text<br>
Duration : 1 h 38 min<br>
Bit rate : 47 b/s<br>
Frame rate : 0.198 FPS<br>
Count of elements : 1164<br>
Stream size : 34.0 KiB (0%)<br>
Language : Japanese<br>
Default : No<br>
Forced : No​</div><br>
<div style="text-align: center">Text #6​</div><div style="text-align: left">ID : 8<br>
Format : UTF-8<br>
Codec ID : S_TEXT/UTF8<br>
Codec ID/Info : UTF-8 Plain Text<br>
Duration : 10 min 28 s<br>
Bit rate : 9 b/s<br>
Frame rate : 0.013 FPS<br>
Count of elements : 8<br>
Stream size : 759 Bytes (0%)<br>
Title : Forced<br>
Language : Japanese<br>
Default : No<br>
Forced : Yes​</div><br>
<div style="text-align: center">Text #7​</div><div style="text-align: left">ID : 9<br>
Format : UTF-8<br>
Codec ID : S_TEXT/UTF8<br>
Codec ID/Info : UTF-8 Plain Text<br>
Duration : 1 h 35 min<br>
Bit rate : 1 b/s<br>
Frame rate : 0.008 FPS<br>
Count of elements : 48<br>
Stream size : 994 Bytes (0%)<br>
Language : Portuguese (BR)<br>
Default : No<br>
Forced : No​</div><br>
<div style="text-align: center">Text #8​</div><div style="text-align: left">ID : 10<br>
Format : UTF-8<br>
Codec ID : S_TEXT/UTF8<br>
Codec ID/Info : UTF-8 Plain Text<br>
Duration : 1 h 35 min<br>
Bit rate : 1 b/s<br>
Frame rate : 0.008 FPS<br>
Count of elements : 47<br>
Stream size : 1.09 KiB (0%)<br>
Language : Romanian<br>
Default : No<br>
Forced : No​</div><br>
<div style="text-align: center">Text #9​</div><div style="text-align: left">ID : 11<br>
Format : UTF-8<br>
Codec ID : S_TEXT/UTF8<br>
Codec ID/Info : UTF-8 Plain Text<br>
Duration : 1 h 35 min<br>
Bit rate : 1 b/s<br>
Frame rate : 0.008 FPS<br>
Count of elements : 47<br>
Stream size : 1 008 Bytes (0%)<br>
Language : Spanish<br>
Default : No​</div>Forced : No<br>
<div style="text-align: center"><br>
​</div></div>
</div><div style="text-align: center"><br>
<div class="bbCodeBlock bbCodeVfcHH HiddenContent">
<div class="attribution type">Hidden Content:</div>
<blockquote>You must reply before you can see the hidden data contained here.</blockquote>
</div></div>
<div class="messageTextEndMarker">&nbsp;</div>
</blockquote>
</article>]]></description>
                <author><![CDATA[lockwxlff]]></author>
                </item>

                
                <item>
                <title><![CDATA[【Requests】[REQ AUD] - Could Anyone be able to get this]]></title>
                <link><![CDATA[https://sharemania.us/threads/could-anyone-be-able-to-get-this.219893/]]></link>
                <description><![CDATA[<article>
<blockquote class="messageText SelectQuoteContainer ugc baseHtml">
Hi could some one get these two tracks in Hi-Res 24 bit or the best audio quatliy if possible <a href="https://tidal.com/browse/track/109700323" target="_blank" class="externalLink" rel="nofollow">https://tidal.com/browse/track/109700323</a> and <a href="https://tidal.com/browse/album/252844616" target="_blank" class="externalLink" rel="nofollow">https://tidal.com/browse/album/252844616</a><b> thank you in advance</b>
<div class="messageTextEndMarker">&nbsp;</div>
</blockquote>
</article>]]></description>
                <author><![CDATA[extrajohn2022]]></author>
                </item>

                </channel></rss>